Coordinates
version=1
nRows=7
nColumns=63
inDegrees=yes

Units are S.I. units (second, meters, Newtons, ...)
If the header above contains a line with 'inDegrees', this indicates whether rotational values are in degrees (yes) or radians (no).

endheader
time	pelvis_tilt	pelvis_list	pelvis_rotation	pelvis_tx	pelvis_ty	pelvis_tz	hip_flexion_r	hip_adduction_r	hip_rotation_r	knee_angle_r	knee_angle_r_beta	ankle_angle_r	subtalar_angle_r	mtp_angle_r	hip_flexion_l	hip_adduction_l	hip_rotation_l	knee_angle_l	knee_angle_l_beta	ankle_angle_l	subtalar_angle_l	mtp_angle_l	L5_S1_Flex_Ext	L5_S1_Lat_Bending	L5_S1_axial_rotation	L4_L5_Flex_Ext	L4_L5_Lat_Bending	L4_L5_axial_rotation	L3_L4_Flex_Ext	L3_L4_Lat_Bending	L3_L4_axial_rotation	L2_L3_Flex_Ext	L2_L3_Lat_Bending	L2_L3_axial_rotation	L1_L2_Flex_Ext	L1_L2_Lat_Bending	L1_L2_axial_rotation	L1_T12_Flex_Ext	L1_T12_Lat_Bending	L1_T12_axial_rotation	Abs_r3	Abs_r2	Abs_r1	Abs_t1	Abs_t2	neck_flexion	neck_bending	neck_rotation	arm_flex_r	arm_add_r	arm_rot_r	elbow_flex_r	pro_sup_r	wrist_flex_r	wrist_dev_r	arm_flex_l	arm_add_l	arm_rot_l	elbow_flex_l	pro_sup_l	wrist_flex_l	wrist_dev_l
      6.76271186	      3.51371993	    -11.31739724	    103.04541081	      0.11532661	      0.87269733	      0.47291912	     18.22842179	     -0.54299671	     -9.43700702	     24.39122687	      0.42570722	     38.76476009	     -2.42874586	      0.00000000	     13.55036287	     -0.75242911	     16.83447085	     10.25023115	      0.17890028	     30.92800598	     -1.49622804	      0.00000000	     -0.12098097	     -0.38610893	      2.46514757	     -0.22467376	     -0.51352488	      2.61921929	     -0.19875963	     -0.93878526	      2.61921929	     -0.13826915	     -0.93878526	      2.15700412	     -0.11234293	     -0.78735333	      2.00293240	     -0.06912853	     -0.59808274	      1.84886068	     -0.86415497	     -4.36774146	     13.71041124	      0.00000000	      0.00000000	     22.91443673	      3.92678504	     -0.00162451	     -5.24070558	    -12.66626280	    -12.88609988	     44.44480787	     87.20603617	    -19.57490902	      7.85279979	     10.17924189	    -16.66320684	    118.52188252	     13.38676149	     17.64288909	     -6.09076969	     -6.12725049
      6.77966102	      3.65269080	    -11.44785680	    103.48946266	      0.11492832	      0.87272686	      0.47359485	     18.39566878	     -0.50451380	     -9.55535307	     24.24924073	      0.42322909	     38.85008818	     -2.77281324	      0.00000000	     13.93166423	     -0.76819802	     16.40155631	     10.41698651	      0.18181071	     30.98257301	     -0.65801216	      0.00000000	     -0.10206071	     -0.37189327	      2.37128292	     -0.18953694	     -0.49461805	      2.51948810	     -0.16767553	     -0.90422130	      2.51948810	     -0.11664518	     -0.90422130	      2.07487256	     -0.09477357	     -0.75836476	      1.92666737	     -0.05831749	     -0.57606268	      1.77846219	     -0.72900942	     -4.20693107	     13.18836422	      0.00000000	      0.00000000	     22.72986416	      3.82186778	      0.27687844	     -5.19621178	    -12.74773970	    -12.22374705	     44.33466175	     87.10434451	    -21.04111680	      6.59069821	     10.14610750	    -16.65703858	    117.27412254	     13.24673757	     18.59160821	     -5.78683947	     -5.68655541
      6.79661017	      3.73164405	    -11.46470925	    103.55344308	      0.11499205	      0.87296070	      0.47417350	     18.52145760	     -0.37515595	     -9.20028660	     24.23180362	      0.42292476	     38.80316001	     -3.37429888	      0.00000000	     13.99562749	     -0.77898774	     16.82249543	     10.27568223	      0.17934449	     30.74792087	     -1.40295935	      0.00000000	     -0.10522175	     -0.36320823	      2.35015255	     -0.19540731	     -0.48306694	      2.49703708	     -0.17286881	     -0.88310448	      2.49703708	     -0.12025794	     -0.88310448	      2.05638348	     -0.09770892	     -0.74065422	      1.90949895	     -0.06012371	     -0.56260954	      1.76261441	     -0.75158844	     -4.10868411	     13.07084344	      0.00000000	      0.00000000	     22.74597439	      3.74477222	      0.24731967	     -5.06522552	    -12.80251950	    -11.75432995	     44.11262296	     86.93230764	    -22.05581265	      5.47518670	     10.01906338	    -16.62706839	    114.31164353	     12.91939729	     22.91532065	     -5.74155854	     -5.06702942
      6.81355932	      3.82698411	    -11.53570591	    103.68893633	      0.11519194	      0.87316290	      0.47490892	     18.69029106	     -0.28624095	     -9.05112492	     24.20434463	      0.42244551	     38.83714335	     -3.70354214	      0.00000000	     14.34441073	     -0.96560798	     14.71489799	     10.48272742	      0.18295811	     31.32403379	      1.40574959	      0.00000000	     -0.10368264	     -0.35340287	      2.31062062	     -0.19254904	     -0.47002582	      2.45503441	     -0.17034022	     -0.85926374	      2.45503441	     -0.11849889	     -0.85926374	      2.02179304	     -0.09627970	     -0.72065914	      1.87737925	     -0.05924426	     -0.54742105	      1.73296547	     -0.74059476	     -3.99776396	     12.85097870	      0.00000000	      0.00000000	     22.76037011	      3.79439907	      0.55972343	     -4.85008807	    -12.81280399	    -11.53040232	     43.86568073	     86.86914641	    -22.35483478	      4.82923631	      9.96217302	    -16.60581980	    112.70782391	     12.75083263	     25.02005348	     -5.67092691	     -4.82634695
      6.83050847	      3.89249077	    -11.57839676	    103.98349866	      0.11500186	      0.87337186	      0.47538083	     18.74216760	     -0.38635442	     -9.62371786	     24.17277744	      0.42189456	     39.10235261	     -3.15234040	      0.00000000	     14.45571080	     -0.92723426	     15.17889796	     10.34752846	      0.18059844	     31.22749102	      0.99495903	      0.00000000	     -0.10171512	     -0.34894623	      2.26450939	     -0.18889515	     -0.46409849	      2.40604123	     -0.16710777	     -0.84842786	      2.40604123	     -0.11625021	     -0.84842786	      1.98144572	     -0.09445266	     -0.71157115	      1.83991388	     -0.05812002	     -0.54051771	      1.69838204	     -0.72654092	     -3.94734954	     12.59452187	      0.00000000	      0.00000000	     22.74640260	      3.71002210	      0.46353676	     -4.70367929	    -12.80645027	    -11.48689399	     43.57390403	     86.84483114	    -22.35236780	      4.47314607	      9.99602394	    -16.64144859	    112.25304685	     12.81622313	     25.96352943	     -5.79961123	     -4.79974559
      6.84745763	      3.85581985	    -11.62113295	    103.95459403	      0.11542256	      0.87351720	      0.47579735	     18.81973582	     -0.41990659	     -9.59965439	     24.18199834	      0.42205549	     39.22418789	     -3.06083630	      0.00000000	     14.54307513	     -0.93969312	     14.67103270	     10.31253479	      0.17998769	     31.42378708	      1.63092245	      0.00000000	     -0.10910239	     -0.36079224	      2.28937614	     -0.20261405	     -0.47985368	      2.43246215	     -0.17924431	     -0.87723025	      2.43246215	     -0.12469312	     -0.87723025	      2.00320413	     -0.10131248	     -0.73572753	      1.86011812	     -0.06234110	     -0.55886718	      1.71703211	     -0.77930745	     -4.08135396	     12.73282330	      0.00000000	      0.00000000	     22.84302092	      3.83558456	      0.30330413	     -4.56915969	    -12.73649757	    -11.63308613	     43.38493719	     86.79000559	    -22.06560357	      4.53002812	     10.02775367	    -16.71993471	    111.62750458	     12.88252313	     26.31820371	     -5.86000859	     -4.67471445
      6.86440678	      3.74010634	    -11.77675619	    103.88878922	      0.11597028	      0.87337626	      0.47600723	     19.01653815	     -0.49044433	     -9.27977118	     24.25295658	      0.42329395	     39.19129450	     -3.40332312	      0.00000000	     14.68394515	     -0.86864635	     14.25437317	     10.28127096	      0.17944203	     31.60693488	      2.26962961	      0.00000000	     -0.10284184	     -0.38940188	      2.28548336	     -0.19098757	     -0.51790450	      2.42832607	     -0.16895885	     -0.94679173	      2.42832607	     -0.11753793	     -0.94679173	      1.99979794	     -0.09549893	     -0.79406831	      1.85695523	     -0.05876383	     -0.60318351	      1.71411252	     -0.73458895	     -4.40499192	     12.71117282	      0.00000000	      0.00000000	     22.99648685	      4.10394073	      0.33191642	     -4.42609236	    -12.64575107	    -11.69578858	     43.39442775	     86.83317528	    -21.40507222	      5.35057654	      9.73792644	    -16.91569452	    110.26978898	     12.84238634	     25.40435563	     -5.48626631	     -4.99069742
